<?xml version="1.0" standalone="no"?><!DOCTYPE svg PUBLIC "-//W3C//DTD SVG 1.1//EN" "http://www.w3.org/Graphics/SVG/1.1/DTD/svg11.dtd"><svg t="1762776103743" class="icon" viewBox="0 0 1024 1024" version="1.1" xmlns="http://www.w3.org/2000/svg" p-id="1120" xmlns:xlink="http://www.w3.org/1999/xlink" width="32" height="32"><path d="M516 140c1.012 0 2.019 0.02 3.019 0.058 194.21 3.364 352.185 155.383 365.015 347.146C886.574 494.99 888 503.26 888 512c0 8.654-1.399 16.849-3.893 24.567-12.434 194.447-174.082 348.311-371.669 348.311C306.746 884.878 140 718.131 140 512.438 140 306.746 306.746 140 512.438 140c0.839 0 1.677 0.003 2.514 0.009 0.349-0.005 0.698-0.009 1.048-0.009zM218.928 607.5c30.567 94.448 105.454 168.952 200.138 198.991-10.128-18.475-18.907-39.662-26.361-62.603-5.461-16.808 3.738-34.861 20.546-40.322 16.808-5.461 34.861 3.738 40.322 20.546 10.698 32.927 23.183 57.493 35.675 73.159C501.969 813.225 511.264 816 516 816c4.401 0 12.641-2.327 24.093-15.529 11.379-13.119 23.08-33.962 33.546-62.491 7.793-21.242 14.562-45.813 19.984-72.99C569.17 666.966 543.863 668 518 668c-96.091 0-184.492-14.235-250.023-38.276-17.714-6.499-34.255-13.895-49.049-22.224z m584.62 7.123c-11.124 5.488-23.033 10.518-35.525 15.101-31.287 11.478-67.789 20.718-107.852 27.244-6.473 38.181-15.429 73.021-26.447 103.055-5.707 15.557-12.108 30.208-19.223 43.567 88.202-30.918 158.093-100.781 189.047-188.967zM515.405 204.015c-4.527 0.208-12.543 2.885-23.498 15.514-11.379 13.119-23.08 33.962-33.546 62.491C437.523 338.82 424 419.418 424 510c0 17.673-14.327 32-32 32-17.673 0-32-14.327-32-32 0-96.091 14.235-184.492 38.276-250.023 5.284-14.404 11.161-28.031 17.651-40.576-92.841 30.56-166.205 104.009-196.649 196.902 18.993-10.653 40.964-19.842 64.834-27.598 16.808-5.461 34.861 3.738 40.322 20.546 5.461 16.808-3.738 34.861-20.546 40.322-32.927 10.698-57.493 23.183-73.159 35.675C214.775 497.969 212 507.264 212 512c0 4.401 2.327 12.641 15.529 24.093 13.119 11.379 33.962 23.08 62.491 33.546C346.82 590.477 427.418 604 518 604c29.702 0 58.331-1.454 85.399-4.144C606.38 571.48 608 541.338 608 510c0-29.855-1.47-58.624-4.186-85.815C576.624 421.469 547.854 420 518 420c-17.673 0-32-14.327-32-32 0-17.673 14.327-32 32-32 26.144 0 51.72 1.056 76.42 3.074-5.55-28.794-12.602-54.758-20.781-77.054-10.466-28.529-22.167-49.372-33.546-62.491-10.701-12.337-18.598-15.177-23.178-15.497-0.503-0.007-1.006-0.013-1.51-0.017z m153.52 229.564C670.943 458.28 672 483.855 672 510c0 27.581-1.176 54.529-3.417 80.484 28.931-5.56 55.013-12.633 77.397-20.845 28.529-10.466 49.372-22.167 62.491-33.546 6.169-5.351 9.962-10.001 12.255-13.886 0.1-3.244 0.152-6.5 0.152-9.769 0-3.58-0.064-7.147-0.185-10.698-2.295-3.874-6.081-8.506-12.222-13.833-13.119-11.379-33.962-23.08-62.491-33.546-22.296-8.18-48.26-15.232-77.055-20.782z m-51.326-211.186c5.888 11.709 11.258 24.317 16.125 37.584 11.413 31.109 20.612 67.373 27.131 107.167 39.794 6.519 76.059 15.719 107.168 27.132 12.351 4.531 24.131 9.498 35.147 14.913-30.774-86.649-99.185-155.469-185.571-186.796z" fill="#2c2c2c" p-id="1121"></path></svg>