<?xml version="1.0" standalone="no"?><!DOCTYPE svg PUBLIC "-//W3C//DTD SVG 1.1//EN" "http://www.w3.org/Graphics/SVG/1.1/DTD/svg11.dtd"><svg t="1762753707948" class="icon" viewBox="0 0 1024 1024" version="1.1" xmlns="http://www.w3.org/2000/svg" p-id="29049" width="48" height="48" xmlns:xlink="http://www.w3.org/1999/xlink"><path d="M163.541333 170.666667h191.573334L416.853333 325.034667l-99.2 66.133333A42.666667 42.666667 0 0 0 298.666667 426.666667c0.128 4.010667 0 0.042667 0 0.042666V427.605333a86.442667 86.442667 0 0 0 0.256 5.717334c0.256 3.498667 0.682667 8.234667 1.493333 14.08 1.664 11.52 4.864 27.392 11.093333 46.08 12.544 37.546667 37.12 86.144 84.992 134.016 47.872 47.872 96.469333 72.448 133.973334 84.992 18.730667 6.229333 34.56 9.386667 46.165333 11.093333a189.013333 189.013333 0 0 0 19.754667 1.706667l0.554666 0.042666h0.341334s4.778667-0.256 0.042666 0a42.666667 42.666667 0 0 0 38.144-23.594666l28.586667-57.173334 189.269333 31.573334v184.32c-90.069333 13.013333-333.354667 25.856-524.501333-165.290667C137.685333 504.021333 150.485333 260.693333 163.541333 170.666667z m223.573334 276.736l77.098666-51.370667a85.333333 85.333333 0 0 0 31.872-102.698667L434.346667 138.965333A85.333333 85.333333 0 0 0 355.114667 85.333333H161.322667c-38.784 0-75.264 26.922667-81.621334 68.992-14.506667 95.658667-34.176 378.197333 188.8 601.173334 222.976 222.976 505.514667 203.264 601.173334 188.8 42.069333-6.4 68.992-42.837333 68.992-81.621334v-186.538666a85.333333 85.333333 0 0 0-71.296-84.181334l-189.269334-31.530666a85.333333 85.333333 0 0 0-90.368 45.994666l-14.762666 29.568a200.96 200.96 0 0 1-15.488-4.48c-26.453333-8.789333-63.189333-26.88-100.650667-64.341333-37.461333-37.461333-55.552-74.197333-64.341333-100.693333a195.84 195.84 0 0 1-5.333334-19.072z" fill="#707070" p-id="29050"></path></svg>