<?xml version="1.0" standalone="no"?><!DOCTYPE svg PUBLIC "-//W3C//DTD SVG 1.1//EN" "http://www.w3.org/Graphics/SVG/1.1/DTD/svg11.dtd"><svg t="1762754372290" class="icon" viewBox="0 0 1024 1024" version="1.1" xmlns="http://www.w3.org/2000/svg" p-id="36891" width="32" height="32" xmlns:xlink="http://www.w3.org/1999/xlink"><path d="M896 707.648a195.2 195.2 0 0 1-33.152 112.64l-8.064 10.688a129.6 129.6 0 0 1-62.72 48c-17.92 6.656-29.184 8.64-58.176 11.968-124.672 11.648-260.928-46.592-395.52-166.272-89.856-80.128-157.184-180.352-189.568-282.816C135.04 398.528 128 356.928 128 319.232c0-45.184 10.24-84.288 30.72-113.664 19.456-26.752 56.448-48.96 112-69.952a64 64 0 0 1 74.88 22.912l106.624 150.912a64 64 0 0 1-5.76 80.896l-13.888 14.144-16.768 16.256a97.92 97.92 0 0 0-10.56 12.16c-1.472 19.584 19.456 59.968 80.384 122.368l18.176 16.96c56.192 51.84 71.296 56 88.576 44.032l5.76-4.736c6.144-4.672 22.08-15.744 56.192-39.232a64 64 0 0 1 65.984-3.904l15.552 8.192c106.432 56.832 155.008 91.008 159.744 126.08l0.384 4.992z m-64 1.024c0.064 5.248-7.36-2.816-22.72-13.952-22.464-16.256-57.088-36.864-103.488-61.632l-15.168-8.064-50.432 34.816c-1.216 0.768-1.728 1.088-1.536 0.832-55.04 43.2-102.4 31.104-197.952-59.904-73.344-75.008-102.4-131.072-99.328-172.288 1.472-22.592 17.024-43.264 32.128-55.68 6.4-6.144 12.8-12.416 18.432-18.176l8-8.32-106.56-150.848c-44.864 16.96-72.64 33.664-82.56 47.232C198.912 259.84 192 286.208 192 319.232c0 30.72 6.016 65.92 17.792 103.36 28.8 91.072 89.6 181.632 171.136 254.272 122.432 108.928 242.304 160.128 346.368 150.4l16.448-2.048c11.392-1.6 17.792-3.2 25.92-6.208 14.08-5.248 25.088-13.44 34.112-26.56 17.088-20.864 26.24-47.616 27.904-72.96l0.32-10.816z" fill="#707070" fill-opacity=".9" p-id="36892"></path></svg>