<?xml version="1.0" standalone="no"?><!DOCTYPE svg PUBLIC "-//W3C//DTD SVG 1.1//EN" "http://www.w3.org/Graphics/SVG/1.1/DTD/svg11.dtd"><svg t="1763595151620" class="icon" viewBox="0 0 1024 1024" version="1.1" xmlns="http://www.w3.org/2000/svg" p-id="5760" xmlns:xlink="http://www.w3.org/1999/xlink" width="20" height="20"><path d="M559.215304 512l261.164522-261.164522c13.04487-13.022609 13.04487-34.192696 0-47.215304-13.04487-13.04487-34.170435-13.04487-47.215304 0L512 464.784696 250.835478 203.620174c-13.04487-13.04487-34.170435-13.04487-47.215304 0-13.04487 13.022609-13.04487 34.192696 0 47.215304L464.784696 512 203.620174 773.142261c-13.04487 13.04487-13.04487 34.170435 0 47.215304 6.522435 6.522435 15.070609 9.772522 23.618783 9.772522s17.096348-3.250087 23.618783-9.772522L512 559.215304l261.164522 261.164522c6.522435 6.522435 15.070609 9.772522 23.618783 9.772522s17.096348-3.250087 23.618783-9.772522c13.04487-13.04487 13.04487-34.170435 0-47.215304L559.215304 512z" fill="#272636" p-id="5761"></path></svg>