<?xml version="1.0" standalone="no"?><!DOCTYPE svg PUBLIC "-//W3C//DTD SVG 1.1//EN" "http://www.w3.org/Graphics/SVG/1.1/DTD/svg11.dtd"><svg t="1762753422819" class="icon" viewBox="0 0 1024 1024" version="1.1" xmlns="http://www.w3.org/2000/svg" p-id="20432" width="48" height="48" xmlns:xlink="http://www.w3.org/1999/xlink"><path d="M819.2 153.6H204.8c-84.48 0-153.6 69.12-153.6 153.6v325.12c0 84.48 69.12 153.6 153.6 153.6h97.28c10.24 0 20.48 2.56 30.72 10.24l122.88 84.48c35.84 25.6 81.92 25.6 117.76 0l122.88-84.48c7.68-5.12 17.92-10.24 30.72-10.24H819.2c84.48 0 153.6-69.12 153.6-153.6V307.2c0-84.48-69.12-153.6-153.6-153.6z m51.2 478.72c0 28.16-23.04 51.2-51.2 51.2h-97.28c-30.72 0-61.44 10.24-87.04 28.16L512 796.16l-122.88-84.48c-25.6-17.92-56.32-28.16-87.04-28.16H204.8c-28.16 0-51.2-23.04-51.2-51.2V307.2c0-28.16 23.04-51.2 51.2-51.2h614.4c28.16 0 51.2 23.04 51.2 51.2v325.12z" p-id="20433" fill="#1196db"></path><path d="M634.88 496.64c-23.04 17.92-40.96 25.6-58.88 33.28-15.36 5.12-35.84 7.68-64 7.68s-48.64-2.56-64-7.68c-17.92-5.12-35.84-15.36-58.88-33.28-23.04-17.92-53.76-12.8-71.68 10.24-17.92 23.04-12.8 53.76 10.24 71.68 28.16 20.48 56.32 38.4 87.04 48.64 30.72 10.24 61.44 12.8 97.28 12.8s66.56-2.56 97.28-12.8c30.72-10.24 58.88-25.6 87.04-48.64 23.04-17.92 28.16-48.64 10.24-71.68-17.92-23.04-48.64-28.16-71.68-10.24z" p-id="20434" fill="#1196db"></path></svg>