<?xml version="1.0" standalone="no"?><!DOCTYPE svg PUBLIC "-//W3C//DTD SVG 1.1//EN" "http://www.w3.org/Graphics/SVG/1.1/DTD/svg11.dtd"><svg t="1762776113227" class="icon" viewBox="0 0 1024 1024" version="1.1" xmlns="http://www.w3.org/2000/svg" p-id="1399" width="32" height="32" xmlns:xlink="http://www.w3.org/1999/xlink"><path d="M738.707 151.339c95.586-34.49 188.094 58.019 153.605 153.605L695.528 850.316c-34.785 96.406-166.614 107.65-217.225 18.529l-93.595-164.812a120.002 120.002 0 0 0-45.09-45.091l-164.813-93.595c-89.121-50.611-77.876-182.44 18.529-217.225l545.373-196.783z m93.404 131.884c16.095-44.607-27.076-87.779-71.683-71.683L215.056 408.323c-44.989 16.234-50.236 77.754-8.647 101.372l164.813 93.594a183.999 183.999 0 0 1 69.139 69.139l93.595 164.814c23.618 41.589 85.138 36.342 101.371-8.647l196.784-545.372z m-180.648 98.725c12.497 12.497 12.497 32.758 0 45.255l-144.25 144.25c-12.496 12.497-32.758 12.497-45.255 0-12.496-12.497-12.496-32.758 0-45.255l144.25-144.25c12.497-12.496 32.758-12.496 45.255 0z" fill="#515151" p-id="1400"></path></svg>